<?xml version="1.0" encoding="utf-8"?>
<!-- Generator: Adobe Illustrator 19.2.1, SVG Export Plug-In . SVG Version: 6.00 Build 0)  -->
<svg version="1.1"
	 id="Layer_1" xmlns:cc="http://creativecommons.org/ns#" xmlns:dc="http://purl.org/dc/elements/1.1/" xmlns:inkscape="http://www.inkscape.org/namespaces/inkscape" xmlns:rdf="http://www.w3.org/1999/02/22-rdf-syntax-ns#" xmlns:sodipodi="http://sodipodi.sourceforge.net/DTD/sodipodi-0.dtd" xmlns:svg="http://www.w3.org/2000/svg"
	 xmlns="http://www.w3.org/2000/svg" xmlns:xlink="http://www.w3.org/1999/xlink" x="0px" y="0px" viewBox="0 0 1536 1024"
	 style="enable-background:new 0 0 1536 1024;" xml:space="preserve">
<style type="text/css">
	.st0{fill:#FFFFFF;}
</style>
<path class="st0" d="M1529,59.7c-10.1-22-34.3-44.7-56.2-52.9L1454.7,0H768H81.3L63.7,6.6c-21.4,8-44.9,29.9-55.9,52.2L0,74.7V512
	v437.3l7.8,15.9c10.7,21.7,34.4,44.2,54.9,52.1l0,0c16.6,6.4,22.2,6.4,704.3,6.6l687.6,0.2l18.2-6.8c21.9-8.2,46-30.9,56.2-52.9
	l7-15.1V512V74.7L1529,59.7z M1476,915.5H66V258.2h1410V915.5z"/>
<path id="_305701600" class="st0" d="M1035.1,710.9c-16.5-11.6-30.1-60-36-128.9c-2.9-33.6-2.3-51,1.8-57.8c3-4.8,20.1-2.7,35.3,4.5
	c28.2,13.3,27.4,11.1,30.1,76.4c2.8,66.1,4.5,79.6,9.8,77.8c7-2.3,32.9-44,36.8-59.3c2.2-8.4,3.7-28.7,3.4-45.1
	c-0.3-16.4-0.5-33.1-0.5-37.1c0-9.1,6.1-16.6,13.5-16.6c8,0,45.7,17.8,50.9,24c3.5,4.2,3.6,10.5,0.5,34.8
	c-4,31.7-8.2,44.6-17.3,52.9c-3.1,2.9-9,11.5-13.1,19.1c-4,7.6-9.2,13.9-11.6,13.9c-2.3,0-4.8,2.1-5.6,4.8c-1.2,4.2-0.9,4.2,2.1,0
	c1.9-2.6,3.4-3.3,3.4-1.6c0,7-31.1,36.8-41.5,39.8C1080.5,717.2,1042.8,716.3,1035.1,710.9L1035.1,710.9L1035.1,710.9z M736.2,581.2
	c1.1-3.9,1.9-22.9,1.8-42.1c-0.1-33.5-0.3-34.6-5-25.8c-6.1,11.3-23.4,60.7-23.4,66.9c0,5.3,4.8,7.6,16.3,8
	C732,588.3,734.8,586.4,736.2,581.2L736.2,581.2L736.2,581.2z M743,716.5c-47.1-6-64-14.8-83.5-43.5c-14.6-21.5-15.2-23.3-17-51.1
	c-1.3-19.9-0.6-32.3,2.2-39.9c2.2-6.1,6.3-21.5,9.1-34.1c9.8-45,20.4-64.4,54.4-99.8c15.6-16.2,19.5-18.7,29.6-18.6
	c6.4,0,17.9,2.9,25.5,6.4c7.6,3.5,15.6,6.3,17.7,6.3c2.1,0,7.1,3.1,11.2,6.9c7.2,6.7,7.3,8,5.2,42.1c-1.2,19.4-3.5,36.8-5.1,38.7
	c-1.6,1.9-3.3,22.2-3.8,45l-0.9,41.6l-17.9,5c-15.8,4.4-20.7,4.5-41.3,0.6c-25.9-4.9-28.1-3.9-28.2,12.4
	c-0.1,12.7,11.3,35.2,24.4,48.3c9.1,9.1,13,10.8,25.4,10.8c20.4,0,39-6.2,44.7-14.9c5.9-9,12.1-9.2,25.6-1
	c16,9.8,14.2,19.8-5.1,28.1C788,717.1,769.6,719.9,743,716.5L743,716.5L743,716.5z M560.7,560.5c1.5-18.4-0.8-51.7-3.7-51.7
	c-3.1,0-15.6,30-19.2,46.1c-2.3,10.1-1.8,11.9,4.3,14.3C556,574.9,559.7,573.1,560.7,560.5z M540.1,721.6
	c-15.1-3.6-21.7-7-43.1-22.8c-24.5-18-28.6-29.2-29-78.6c-0.5-50.6,1.8-72.6,10.2-99.3c7.8-24.9,26.6-48.1,53.8-66.5
	c16.4-11.1,17.9-11.5,34.6-9.1c29.9,4.3,44.7,10.3,49.7,20c9.9,19,13.3,127.7,4.5,142c-3.2,5.1-55.6,5.3-73.1,0.3
	c-5.8-1.7-11.8-2.3-13.3-1.4c-1.5,0.9-2.7,12-2.7,24.6c0.1,27.1,6.8,44.4,22.3,57.5c9.4,7.9,12.2,8.6,25.1,6.7
	c8-1.2,18.2-4.3,22.7-7c11-6.5,40.4-0.7,50.4,9.9l6.9,7.4l-16.8,6.4C611.2,723.3,566.1,727.7,540.1,721.6L540.1,721.6L540.1,721.6z
	 M410.8,713.1c-2.1-8.3-7.2-23-11.5-32.6c-8.3-18.8-19-54.3-30.1-100.2c-3.8-15.7-8.1-30.7-9.5-33.3c-3.6-6.6-5.7,14.3-7.6,74.6
	c-0.9,28-3.5,57.3-5.8,65.2l-4.2,14.3l-31.4,2.9l-31.4,2.9l-7-8.8c-3.9-4.9-16-23.7-27-41.9c-11-18.2-20.3-32.7-20.8-32.2
	c-0.5,0.5,1,14.3,3.2,30.8c2.3,16.4,3.5,32.4,2.7,35.4c-2.2,8.3-32.2,20.1-49.8,19.6c-14.7-0.4-17.8-6.5-22.5-43.9
	c-8-63.7-8.7-78.5-6.4-133.3l2.3-54.5l14-3.7c22.5-6,47.6-4.9,54.5,2.5c3.2,3.4,18.6,31,34.2,61.2l28.3,55l4-30.2
	c5.9-44.5,23.5-104.1,38.7-131l6-10.5l28.1,0.7c23.1,0.6,29.2,1.8,34.3,6.9c8,8,23,65,45.2,171.2c2.6,12.6,6.9,28.9,9.5,36.2
	c2.6,7.3,4.7,15.8,4.7,19.1c0,3.2,3.6,16.8,8,30.2c8,24.6,9.7,32.7,5.9,28.9c-1.2-1.2-4-0.5-6.4,1.5c-3.4,2.8-36.9,11.7-46,12.2
	C415.5,728.2,412.9,721.5,410.8,713.1L410.8,713.1L410.8,713.1z M878.8,672.3c-2.1-32.4-4.4-60.1-5.3-61.4
	c-0.9-1.4-12.6-3.5-26.2-4.8c-27.9-2.5-32.8-5.2-32.8-17.9c0-14.3,10.2-19.3,34.1-16.9l19.9,2l-0.1-12.4c-0.1-6.8-1.5-23.1-3.2-36.2
	c-12.2-96.1-14.5-164.2-6.2-186c2.5-6.7,5.1-8,15.9-8c12.5,0,41.8,12.1,46.1,19.1c1.6,2.6,4.2,97.6,5.2,186.1
	c0.1,5.2-0.9,14.2-2.1,19.9c-2,9.2-1.4,10.3,4.7,10.3c5.7,0,6.8-1.6,5.9-8.7c-0.9-7.4,0.3-8.9,7.5-9.7c6.9-0.8,12.8,3.1,30.1,19.7
	c11.8,11.4,20.5,21.8,19.2,23c-4.8,4.8-26.6,10.6-40.4,10.7c-30.4,0.2-28.6-4.3-26.8,63.6c1.8,67.7,3.6,63.1-25.9,65.3l-16.1,1.2
	L878.8,672.3L878.8,672.3z M1280.2,626.3c13.2-12.5,27.4-29.6,32.1-38.7c9.9-18.9,14.8-48,12.2-71.3c-3-25.7-5.7-27.2-20.1-10.8
	c-22.1,25.1-33.6,52.2-46.1,108.3c-2.9,13.1-6,26.4-6.9,29.4C1248.4,653.5,1256.5,648.8,1280.2,626.3L1280.2,626.3L1280.2,626.3z
	 M1209.3,842.7c-6-4.4-16.8-64-21.4-117.6c-2.1-24.1-3.3-27.9-11.4-35.5c-13.1-12.2-10.8-28.2,4-28.2c5.7,0,8.6-8.3,10.6-30.7
	c3.7-40.1,17.3-93,31-120.2c15.7-31.1,56-65.4,76.9-65.4c6.9,0,25.3,6,47.9,15.6c3.5,1.5,10.4,4.3,15.3,6.3
	c6.2,2.5,11.3,8.7,16.5,20.3c13.8,30.5,13.4,68.4-1.3,107.4c-12.9,34.5-80.4,96.3-114.5,105.1L1247,704l0.1,30.4
	c0.1,37.7,4.6,73.6,11.5,91.6c2.9,7.5,4.2,14.7,2.9,16C1258.9,844.6,1212.7,845.2,1209.3,842.7L1209.3,842.7L1209.3,842.7z"/>
</svg>
